Coordinates
version=1
nRows=7
nColumns=40
inDegrees=yes

Units are S.I. units (second, meters, Newtons, ...)
If the header above contains a line with 'inDegrees', this indicates whether rotational values are in degrees (yes) or radians (no).

endheader
time	pelvis_tilt	pelvis_list	pelvis_rotation	pelvis_tx	pelvis_ty	pelvis_tz	hip_flexion_r	hip_adduction_r	hip_rotation_r	knee_angle_r	knee_angle_r_beta	ankle_angle_r	subtalar_angle_r	mtp_angle_r	hip_flexion_l	hip_adduction_l	hip_rotation_l	knee_angle_l	knee_angle_l_beta	ankle_angle_l	subtalar_angle_l	mtp_angle_l	lumbar_extension	lumbar_bending	lumbar_rotation	arm_flex_r	arm_add_r	arm_rot_r	elbow_flex_r	pro_sup_r	wrist_flex_r	wrist_dev_r	arm_flex_l	arm_add_l	arm_rot_l	elbow_flex_l	pro_sup_l	wrist_flex_l	wrist_dev_l
      0.56000000	     -0.59609936	     -5.47304093	     -5.12214951	      0.23086479	      0.89913500	      0.22887467	    -20.18446376	      1.85469883	    -14.75086629	     11.52475515	      0.20114492	      4.61302586	     12.68578434	      0.00000000	     28.47475894	    -12.27943377	    -23.51551193	      8.30832733	      0.14500767	     -0.27487602	     14.53868625	      0.00000000	     -4.17719940	      3.87843904	     -3.41664469	     44.16531038	    -16.22819261	     44.16531038	     75.07873940	     44.99172537	      0.00000000	      0.00000000	     44.16531038	    -16.22819261	     44.16531038	     75.07873940	     44.99172537	      0.00000000	      0.00000000
      0.56500000	     -0.41800861	     -5.09249379	     -5.25833715	      0.23913717	      0.89899894	      0.22828245	    -20.58011193	      1.20703555	    -14.62195403	     11.94536069	      0.20848587	      3.73979977	     12.32357101	      0.00000000	     28.17998569	    -11.96051797	    -23.60127252	      9.01102653	      0.15727208	     -0.47680186	     13.58390587	      0.00000000	     -4.24340919	      3.36108843	     -3.07461340	     44.16575526	    -16.22711059	     44.16575526	     75.07860383	     44.99176497	      0.00000000	      0.00000000	     44.16575526	    -16.22711059	     44.16575526	     75.07860383	     44.99176497	      0.00000000	      0.00000000
      0.57000000	      0.07058304	     -4.20934918	     -5.75006331	      0.24756335	      0.89970069	      0.22869648	    -21.23576376	     -0.07468945	    -14.22219008	     12.39394563	      0.21631516	      2.99501990	     11.80979583	      0.00000000	     27.06888827	    -11.14177168	    -23.90445583	      8.95379831	      0.15627326	     -1.16766374	     12.30743737	      0.00000000	     -4.63837665	      2.30210086	     -1.90413126	     44.16896112	    -16.21932386	     44.16896112	     75.07763151	     44.99204547	      0.00000000	      0.00000000	     44.16896112	    -16.21932386	     44.16896112	     75.07763151	     44.99204547	      0.00000000	      0.00000000
      0.57500000	      0.23423063	     -3.86311144	     -5.80504757	      0.25591957	      0.89965321	      0.22792384	    -21.56485913	     -0.66207583	    -14.13842434	     12.87449731	      0.22470237	      1.88672561	     11.40547032	      0.00000000	     26.84441651	    -10.84159701	    -23.94084021	      9.79224168	      0.17090686	     -1.48284963	     11.42599198	      0.00000000	     -4.66259500	      1.83445531	     -1.61100613	     44.16941321	    -16.21822746	     44.16941321	     75.07749510	     44.99208432	      0.00000000	      0.00000000	     44.16941321	    -16.21822746	     44.16941321	     75.07749510	     44.99208432	      0.00000000	      0.00000000
      0.58000000	      0.41207369	     -3.42647746	     -5.94027874	      0.26429571	      0.89972237	      0.22730073	    -21.86238559	     -1.36585186	    -14.00821945	     13.37965141	      0.23351897	      0.75534202	     10.79887352	      0.00000000	     26.56320588	    -10.48296269	    -23.99089180	     10.62319565	      0.18540974	     -1.87660029	     10.49714494	      0.00000000	     -4.72877800	      1.27593017	     -1.25640057	     44.16987509	    -16.21710771	     44.16987509	     75.07735590	     44.99212384	      0.00000000	      0.00000000	     44.16987509	    -16.21710771	     44.16987509	     75.07735590	     44.99212384	      0.00000000	      0.00000000
      0.58500000	      0.76957149	     -2.69400795	     -6.34514227	      0.27276466	      0.90039126	      0.22749888	    -22.28656255	     -2.41917309	    -13.50197712	     13.91809972	      0.24291667	     -0.39388285	      9.77839525	      0.00000000	     25.76083109	     -9.83332190	    -24.23513252	     10.88385702	      0.18995914	     -2.64378769	      9.37025458	      0.00000000	     -4.93924234	      0.32112153	     -0.33944666	     44.17221894	    -16.21143129	     44.17221894	     75.07665208	     44.99232174	      0.00000000	      0.00000000	     44.17221894	    -16.21143129	     44.17221894	     75.07665208	     44.99232174	      0.00000000	      0.00000000
      0.59000000	      0.96201687	     -2.31682342	     -6.33259555	      0.28122033	      0.90061130	      0.22664591	    -22.55519149	     -3.01423315	    -13.51208374	     14.48562089	      0.25282178	     -1.77045348	      9.22653772	      0.00000000	     25.52823404	     -9.49890937	    -24.21187961	     11.80373529	      0.20601404	     -3.07076357	      8.60010523	      0.00000000	     -4.99678814	     -0.15687410	     -0.02457823	     44.17261440	    -16.21047468	     44.17261440	     75.07653380	     44.99235467	      0.00000000	      0.00000000	     44.17261440	    -16.21047468	     44.17261440	     75.07653380	     44.99235467	      0.00000000	      0.00000000
